<?xml version='1.0' encoding='UTF-8'?>
<svg width="31mm" height="31mm" version="1.1" viewBox="0 0 31 31" fill_color="#0A0A0A" back_color="white" xmlns="http://www.w3.org/2000/svg"><path d="M1,1H2V2H1zM2,1H3V2H2zM3,1H4V2H3zM4,1H5V2H4zM5,1H6V2H5zM6,1H7V2H6zM7,1H8V2H7zM10,1H11V2H10zM13,1H14V2H13zM15,1H16V2H15zM18,1H19V2H18zM19,1H20V2H19zM23,1H24V2H23zM24,1H25V2H24zM25,1H26V2H25zM26,1H27V2H26zM27,1H28V2H27zM28,1H29V2H28zM29,1H30V2H29zM1,2H2V3H1zM7,2H8V3H7zM9,2H10V3H9zM11,2H12V3H11zM12,2H13V3H12zM13,2H14V3H13zM14,2H15V3H14zM15,2H16V3H15zM17,2H18V3H17zM18,2H19V3H18zM19,2H20V3H19zM23,2H24V3H23zM29,2H30V3H29zM1,3H2V4H1zM3,3H4V4H3zM4,3H5V4H4zM5,3H6V4H5zM7,3H8V4H7zM9,3H10V4H9zM10,3H11V4H10zM12,3H13V4H12zM17,3H18V4H17zM20,3H21V4H20zM21,3H22V4H21zM23,3H24V4H23zM25,3H26V4H25zM26,3H27V4H26zM27,3H28V4H27zM29,3H30V4H29zM1,4H2V5H1zM3,4H4V5H3zM4,4H5V5H4zM5,4H6V5H5zM7,4H8V5H7zM9,4H10V5H9zM10,4H11V5H10zM12,4H13V5H12zM13,4H14V5H13zM14,4H15V5H14zM16,4H17V5H16zM17,4H18V5H17zM18,4H19V5H18zM20,4H21V5H20zM21,4H22V5H21zM23,4H24V5H23zM25,4H26V5H25zM26,4H27V5H26zM27,4H28V5H27zM29,4H30V5H29zM1,5H2V6H1zM3,5H4V6H3zM4,5H5V6H4zM5,5H6V6H5zM7,5H8V6H7zM10,5H11V6H10zM12,5H13V6H12zM13,5H14V6H13zM15,5H16V6H15zM17,5H18V6H17zM18,5H19V6H18zM19,5H20V6H19zM20,5H21V6H20zM23,5H24V6H23zM25,5H26V6H25zM26,5H27V6H26zM27,5H28V6H27zM29,5H30V6H29zM1,6H2V7H1zM7,6H8V7H7zM10,6H11V7H10zM12,6H13V7H12zM13,6H14V7H13zM15,6H16V7H15zM17,6H18V7H17zM18,6H19V7H18zM21,6H22V7H21zM23,6H24V7H23zM29,6H30V7H29zM1,7H2V8H1zM2,7H3V8H2zM3,7H4V8H3zM4,7H5V8H4zM5,7H6V8H5zM6,7H7V8H6zM7,7H8V8H7zM9,7H10V8H9zM11,7H12V8H11zM13,7H14V8H13zM15,7H16V8H15zM17,7H18V8H17zM19,7H20V8H19zM21,7H22V8H21zM23,7H24V8H23zM24,7H25V8H24zM25,7H26V8H25zM26,7H27V8H26zM27,7H28V8H27zM28,7H29V8H28zM29,7H30V8H29zM9,8H10V9H9zM11,8H12V9H11zM17,8H18V9H17zM21,8H22V9H21zM1,9H2V10H1zM7,9H8V10H7zM9,9H10V10H9zM10,9H11V10H10zM12,9H13V10H12zM13,9H14V10H13zM18,9H19V10H18zM20,9H21V10H20zM22,9H23V10H22zM23,9H24V10H23zM26,9H27V10H26zM27,9H28V10H27zM28,9H29V10H28zM1,10H2V11H1zM2,10H3V11H2zM3,10H4V11H3zM5,10H6V11H5zM11,10H12V11H11zM12,10H13V11H12zM14,10H15V11H14zM15,10H16V11H15zM16,10H17V11H16zM18,10H19V11H18zM19,10H20V11H19zM20,10H21V11H20zM24,10H25V11H24zM25,10H26V11H25zM27,10H28V11H27zM28,10H29V11H28zM3,11H4V12H3zM4,11H5V12H4zM6,11H7V12H6zM7,11H8V12H7zM8,11H9V12H8zM12,11H13V12H12zM14,11H15V12H14zM15,11H16V12H15zM16,11H17V12H16zM17,11H18V12H17zM21,11H22V12H21zM22,11H23V12H22zM23,11H24V12H23zM1,12H2V13H1zM2,12H3V13H2zM3,12H4V13H3zM4,12H5V13H4zM5,12H6V13H5zM8,12H9V13H8zM10,12H11V13H10zM13,12H14V13H13zM14,12H15V13H14zM17,12H18V13H17zM22,12H23V13H22zM24,12H25V13H24zM26,12H27V13H26zM2,13H3V14H2zM4,13H5V14H4zM7,13H8V14H7zM9,13H10V14H9zM10,13H11V14H10zM14,13H15V14H14zM16,13H17V14H16zM17,13H18V14H17zM19,13H20V14H19zM20,13H21V14H20zM21,13H22V14H21zM23,13H24V14H23zM24,13H25V14H24zM29,13H30V14H29zM2,14H3V15H2zM3,14H4V15H3zM4,14H5V15H4zM5,14H6V15H5zM8,14H9V15H8zM11,14H12V15H11zM12,14H13V15H12zM16,14H17V15H16zM17,14H18V15H17zM18,14H19V15H18zM19,14H20V15H19zM20,14H21V15H20zM21,14H22V15H21zM23,14H24V15H23zM25,14H26V15H25zM28,14H29V15H28zM29,14H30V15H29zM1,15H2V16H1zM2,15H3V16H2zM3,15H4V16H3zM5,15H6V16H5zM7,15H8V16H7zM8,15H9V16H8zM10,15H11V16H10zM12,15H13V16H12zM13,15H14V16H13zM16,15H17V16H16zM18,15H19V16H18zM23,15H24V16H23zM24,15H25V16H24zM26,15H27V16H26zM27,15H28V16H27zM1,16H2V17H1zM5,16H6V17H5zM11,16H12V17H11zM12,16H13V17H12zM16,16H17V17H16zM17,16H18V17H17zM20,16H21V17H20zM21,16H22V17H21zM24,16H25V17H24zM25,16H26V17H25zM27,16H28V17H27zM29,16H30V17H29zM4,17H5V18H4zM5,17H6V18H5zM7,17H8V18H7zM8,17H9V18H8zM9,17H10V18H9zM10,17H11V18H10zM12,17H13V18H12zM13,17H14V18H13zM16,17H17V18H16zM17,17H18V18H17zM18,17H19V18H18zM21,17H22V18H21zM24,17H25V18H24zM26,17H27V18H26zM27,17H28V18H27zM1,18H2V19H1zM2,18H3V19H2zM3,18H4V19H3zM5,18H6V19H5zM6,18H7V19H6zM9,18H10V19H9zM10,18H11V19H10zM11,18H12V19H11zM13,18H14V19H13zM14,18H15V19H14zM15,18H16V19H15zM16,18H17V19H16zM17,18H18V19H17zM20,18H21V19H20zM21,18H22V19H21zM22,18H23V19H22zM23,18H24V19H23zM24,18H25V19H24zM25,18H26V19H25zM27,18H28V19H27zM28,18H29V19H28zM29,18H30V19H29zM1,19H2V20H1zM2,19H3V20H2zM3,19H4V20H3zM5,19H6V20H5zM6,19H7V20H6zM7,19H8V20H7zM8,19H9V20H8zM13,19H14V20H13zM16,19H17V20H16zM17,19H18V20H17zM19,19H20V20H19zM20,19H21V20H20zM22,19H23V20H22zM23,19H24V20H23zM26,19H27V20H26zM29,19H30V20H29zM1,20H2V21H1zM4,20H5V21H4zM5,20H6V21H5zM8,20H9V21H8zM10,20H11V21H10zM13,20H14V21H13zM14,20H15V21H14zM16,20H17V21H16zM17,20H18V21H17zM19,20H20V21H19zM20,20H21V21H20zM21,20H22V21H21zM22,20H23V21H22zM23,20H24V21H23zM24,20H25V21H24zM25,20H26V21H25zM1,21H2V22H1zM3,21H4V22H3zM4,21H5V22H4zM7,21H8V22H7zM9,21H10V22H9zM13,21H14V22H13zM15,21H16V22H15zM18,21H19V22H18zM21,21H22V22H21zM22,21H23V22H22zM23,21H24V22H23zM24,21H25V22H24zM25,21H26V22H25zM27,21H28V22H27zM28,21H29V22H28zM29,21H30V22H29zM9,22H10V23H9zM11,22H12V23H11zM13,22H14V23H13zM15,22H16V23H15zM16,22H17V23H16zM17,22H18V23H17zM18,22H19V23H18zM19,22H20V23H19zM21,22H22V23H21zM25,22H26V23H25zM26,22H27V23H26zM1,23H2V24H1zM2,23H3V24H2zM3,23H4V24H3zM4,23H5V24H4zM5,23H6V24H5zM6,23H7V24H6zM7,23H8V24H7zM11,23H12V24H11zM12,23H13V24H12zM16,23H17V24H16zM17,23H18V24H17zM18,23H19V24H18zM20,23H21V24H20zM21,23H22V24H21zM23,23H24V24H23zM25,23H26V24H25zM26,23H27V24H26zM27,23H28V24H27zM1,24H2V25H1zM7,24H8V25H7zM11,24H12V25H11zM12,24H13V25H12zM13,24H14V25H13zM15,24H16V25H15zM20,24H21V25H20zM21,24H22V25H21zM25,24H26V25H25zM29,24H30V25H29zM1,25H2V26H1zM3,25H4V26H3zM4,25H5V26H4zM5,25H6V26H5zM7,25H8V26H7zM11,25H12V26H11zM13,25H14V26H13zM14,25H15V26H14zM15,25H16V26H15zM17,25H18V26H17zM20,25H21V26H20zM21,25H22V26H21zM22,25H23V26H22zM23,25H24V26H23zM24,25H25V26H24zM25,25H26V26H25zM26,25H27V26H26zM29,25H30V26H29zM1,26H2V27H1zM3,26H4V27H3zM4,26H5V27H4zM5,26H6V27H5zM7,26H8V27H7zM10,26H11V27H10zM11,26H12V27H11zM12,26H13V27H12zM13,26H14V27H13zM15,26H16V27H15zM16,26H17V27H16zM17,26H18V27H17zM18,26H19V27H18zM19,26H20V27H19zM20,26H21V27H20zM22,26H23V27H22zM24,26H25V27H24zM26,26H27V27H26zM27,26H28V27H27zM29,26H30V27H29zM1,27H2V28H1zM3,27H4V28H3zM4,27H5V28H4zM5,27H6V28H5zM7,27H8V28H7zM10,27H11V28H10zM13,27H14V28H13zM14,27H15V28H14zM15,27H16V28H15zM16,27H17V28H16zM17,27H18V28H17zM18,27H19V28H18zM23,27H24V28H23zM24,27H25V28H24zM25,27H26V28H25zM26,27H27V28H26zM27,27H28V28H27zM28,27H29V28H28zM1,28H2V29H1zM7,28H8V29H7zM12,28H13V29H12zM13,28H14V29H13zM15,28H16V29H15zM16,28H17V29H16zM17,28H18V29H17zM22,28H23V29H22zM23,28H24V29H23zM24,28H25V29H24zM26,28H27V29H26zM27,28H28V29H27zM29,28H30V29H29zM1,29H2V30H1zM2,29H3V30H2zM3,29H4V30H3zM4,29H5V30H4zM5,29H6V30H5zM6,29H7V30H6zM7,29H8V30H7zM9,29H10V30H9zM14,29H15V30H14zM15,29H16V30H15zM18,29H19V30H18zM20,29H21V30H20zM22,29H23V30H22zM24,29H25V30H24zM25,29H26V30H25zM26,29H27V30H26zM27,29H28V30H27z" id="qr-path" fill="#000000" fill-opacity="1" fill-rule="nonzero" stroke="none"/></svg>